<svg fill="none" height="50" viewBox="0 0 50 50" width="50" xmlns="http://www.w3.org/2000/svg" xmlns:xlink="http://www.w3.org/1999/xlink"><filter id="a" color-interpolation-filters="sRGB" filterUnits="userSpaceOnUse" height="48" width="48" x="1" y="1"><feFlood flood-opacity="0" result="BackgroundImageFix"/><feBlend in="SourceGraphic" in2="BackgroundImageFix" mode="normal" result="shape"/><feColorMatrix in="SourceAlpha" result="hardAlpha" type="matrix" values="0 0 0 0 0 0 0 0 0 0 0 0 0 0 0 0 0 0 127 0"/><feOffset dx="1" dy="1"/><feComposite in2="hardAlpha" k2="-1" k3="1" operator="arithmetic"/><feColorMatrix type="matrix" values="0 0 0 0 1 0 0 0 0 1 0 0 0 0 1 0 0 0 0.25 0"/><feBlend in2="shape" mode="normal" result="effect1_innerShadow"/><feColorMatrix in="SourceAlpha" result="hardAlpha" type="matrix" values="0 0 0 0 0 0 0 0 0 0 0 0 0 0 0 0 0 0 127 0"/><feOffset dx="-1" dy="-1"/><feComposite in2="hardAlpha" k2="-1" k3="1" operator="arithmetic"/><feColorMatrix type="matrix" values="0 0 0 0 0 0 0 0 0 0 0 0 0 0 0 0 0 0 0.06 0"/><feBlend in2="effect1_innerShadow" mode="normal" result="effect2_innerShadow"/></filter><filter id="b" color-interpolation-filters="sRGB" filterUnits="userSpaceOnUse" height="48" width="24" x="25" y="1"><feFlood flood-opacity="0" result="BackgroundImageFix"/><feBlend in="SourceGraphic" in2="BackgroundImageFix" mode="normal" result="shape"/><feColorMatrix in="SourceAlpha" result="hardAlpha" type="matrix" values="0 0 0 0 0 0 0 0 0 0 0 0 0 0 0 0 0 0 127 0"/><feOffset dx="-1" dy="-1"/><feComposite in2="hardAlpha" k2="-1" k3="1" operator="arithmetic"/><feColorMatrix type="matrix" values="0 0 0 0 0 0 0 0 0 0 0 0 0 0 0 0 0 0 0.04 0"/><feBlend in2="shape" mode="normal" result="effect1_innerShadow"/></filter><linearGradient id="c" gradientUnits="userSpaceOnUse" x1="4.5" x2="43" y1="2.5" y2="47.5"><stop offset="0" stop-color="#da9bf7"/><stop offset="1" stop-color="#cf87e1"/></linearGradient><linearGradient id="d" gradientUnits="userSpaceOnUse" x1=".999999" x2="37.5" y1="-5" y2="49"><stop offset="0" stop-color="#e678ae" stop-opacity="0"/><stop offset=".670746" stop-color="#db469f"/></linearGradient><linearGradient id="e" gradientUnits="userSpaceOnUse" x1="49" x2="25" y1="37" y2="12"><stop offset="0" stop-color="#d2a0fd"/><stop offset="1" stop-color="#c2a0fd" stop-opacity="0"/></linearGradient><linearGradient id="f" gradientUnits="userSpaceOnUse" x1="21" x2="29.5" y1="18" y2="32"><stop offset="0" stop-color="#bb97ef"/><stop offset="1" stop-color="#dc479f"/></linearGradient><path clip-rule="evenodd" d="m49 25c0 .7999-.0391 1.5907-.1156 2.3705-.1806.5074-.5624.9308-1.0721 1.1574l-5.4999 2.4443c-.2483.1104-.4397.3176-.5385.5707-.0907.2325-.1862.4627-.2862.6903-.1094.2491-.1207.5312-.0231.785l2.1608 5.6179c.1997.5192.171 1.0868-.0583 1.5724-1.0062 1.2269-2.1316 2.3523-3.3585 3.3585-.4856.2293-1.0532.258-1.5724.0583l-5.6178-2.1607c-.2539-.0977-.536-.0864-.785.023-.2277.1001-.4579.1955-.6905.2863-.2531.0988-.4603.2902-.5707.5385l-2.4443 5.4999c-.2266.5097-.65.8915-1.1574 1.0721-.7798.0765-1.5706.1156-2.3705.1156s-1.5907-.0391-2.3705-.1156c-.5074-.1806-.9308-.5624-1.1574-1.0721l-2.4443-5.4999c-.1104-.2483-.3176-.4397-.5707-.5385-.2325-.0908-.4627-.1862-.6904-.2863-.249-.1093-.5311-.1206-.785-.023l-5.6177 2.1607c-.5193.1997-1.0872.171-1.57282-.0585-.59944-.4916-1.17465-1.0117-1.72357-1.5581l-.07629-.0763c-.54642-.5489-1.06644-1.1241-1.55801-1.7235-.2295-.4856-.25826-1.0535-.05853-1.5728l2.16066-5.6177c.09764-.2538.08637-.5359-.02303-.785-.10006-.2277-.19554-.4579-.28632-.6905-.09881-.2531-.29021-.4603-.53853-.5707l-5.49984-2.4443c-.50972-.2266-.89155-.65-1.07213-1.1574-.07646-.7798-.11559-1.5706-.11559-2.3705s.03913-1.5907.11559-2.3705c.18058-.5074.56241-.9308 1.07213-1.1574l5.49983-2.4443c.24832-.1104.43973-.3176.53854-.5707.09078-.2326.18626-.4628.28632-.6905.1094-.2491.12067-.5312.02303-.785l-2.16066-5.6177c-.19973-.5193-.17098-1.0872.05852-1.57284.49155-.59936 1.01156-1.1745 1.55795-1.72335l.07646-.07646c.54889-.54643 1.12407-1.06647 1.72348-1.55806.48561-.22948 1.05351-.25822 1.57281-.05849l5.6177 2.16068c.2539.09763.536.08637.785-.02303.2277-.10004.4579-.19549.6904-.28626.2531-.09881.4603-.29022.5707-.53853l2.4443-5.49984c.2266-.50972.65-.89155 1.1574-1.07213.7798-.07646 1.5706-.11559 2.3705-.11559s1.5907.03913 2.3705.11559c.5074.18058.9308.56241 1.1574 1.07213l2.4443 5.49984c.1104.24831.3176.43972.5707.53853.2326.09078.4628.18624.6905.28629.249.1094.5311.12067.785.02303l5.6178-2.16071c.5192-.19968 1.0868-.171 1.5724.05831 1.2269 1.00619 2.3523 2.1316 3.3585 3.35853.2293.48556.258 1.05316.0583 1.57236l-2.1608 5.6179c-.0976.2538-.0863.5359.0231.785.1.2276.1955.4578.2862.6903.0988.2531.2902.4603.5385.5707l5.4999 2.4443c.5097.2266.8915.65 1.0721 1.1574.0765.7798.1156 1.5706.1156 2.3705zm-24 7c4.4183 0 7-2.5817 7-7s-2.5817-7-7-7-7 2.5817-7 7 2.5817 7 7 7z" fill="#e678ae" fill-opacity=".3" fill-rule="evenodd" stroke="url(#c)"/><g filter="url(#a)"><path clip-rule="evenodd" d="m49 25c0 .7999-.0391 1.5907-.1156 2.3705-.1806.5074-.5624.9308-1.0721 1.1574l-5.4999 2.4443c-.2483.1104-.4397.3176-.5385.5707-.0907.2325-.1862.4627-.2862.6903-.1094.2491-.1207.5312-.0231.785l2.1608 5.6179c.1997.5192.171 1.0868-.0583 1.5724-1.0062 1.2269-2.1316 2.3523-3.3585 3.3585-.4856.2293-1.0532.258-1.5724.0583l-5.6178-2.1607c-.2539-.0977-.536-.0864-.785.023-.2277.1001-.4579.1955-.6905.2863-.2531.0988-.4603.2902-.5707.5385l-2.4443 5.4999c-.2266.5097-.65.8915-1.1574 1.0721-.7798.0765-1.5706.1156-2.3705.1156s-1.5907-.0391-2.3705-.1156c-.5074-.1806-.9308-.5624-1.1574-1.0721l-2.4443-5.4999c-.1104-.2483-.3176-.4397-.5707-.5385-.2325-.0908-.4627-.1862-.6904-.2863-.249-.1093-.5311-.1206-.785-.023l-5.6177 2.1607c-.5193.1997-1.0872.171-1.57282-.0585-.59944-.4916-1.17465-1.0117-1.72357-1.5581l-.07629-.0763c-.54642-.5489-1.06644-1.1241-1.55801-1.7235-.2295-.4856-.25826-1.0535-.05853-1.5728l2.16066-5.6177c.09764-.2538.08637-.5359-.02303-.785-.10006-.2277-.19554-.4579-.28632-.6905-.09881-.2531-.29021-.4603-.53853-.5707l-5.49984-2.4443c-.50972-.2266-.89155-.65-1.07213-1.1574-.07646-.7798-.11559-1.5706-.11559-2.3705s.03913-1.5907.11559-2.3705c.18058-.5074.56241-.9308 1.07213-1.1574l5.49983-2.4443c.24832-.1104.43973-.3176.53854-.5707.09078-.2326.18626-.4628.28632-.6905.1094-.2491.12067-.5312.02303-.785l-2.16066-5.6177c-.19973-.5193-.17098-1.0872.05852-1.57284.49155-.59936 1.01156-1.1745 1.55795-1.72335l.07646-.07646c.54889-.54643 1.12407-1.06647 1.72348-1.55806.48561-.22948 1.05351-.25822 1.57281-.05849l5.6177 2.16068c.2539.09763.536.08637.785-.02303.2277-.10004.4579-.19549.6904-.28626.2531-.09881.4603-.29022.5707-.53853l2.4443-5.49984c.2266-.50972.65-.89155 1.1574-1.07213.7798-.07646 1.5706-.11559 2.3705-.11559s1.5907.03913 2.3705.11559c.5074.18058.9308.56241 1.1574 1.07213l2.4443 5.49984c.1104.24831.3176.43972.5707.53853.2326.09078.4628.18624.6905.28629.249.1094.5311.12067.785.02303l5.6178-2.16071c.5192-.19968 1.0868-.171 1.5724.05831 1.2269 1.00619 2.3523 2.1316 3.3585 3.35853.2293.48556.258 1.05316.0583 1.57236l-2.1608 5.6179c-.0976.2538-.0863.5359.0231.785.1.2276.1955.4578.2862.6903.0988.2531.2902.4603.5385.5707l5.4999 2.4443c.5097.2266.8915.65 1.0721 1.1574.0765.7798.1156 1.5706.1156 2.3705zm-24 6c4.4183 0 6-1.5817 6-6s-1.5817-6-6-6-5.9722 1.5817-5.9722 6 1.5539 6 5.9722 6z" fill="url(#d)" fill-rule="evenodd"/></g><path d="m7.90625 30.5234-6.72656-2.9922s.23828.6563 1.09375 1.0352 5.16875 2.2977 5.42187 2.4102c.25313.1125.47657.4179.51563.5156.03906.0976.07812.2086.125.3242.49062.1844.72265.4154.77734.5078-.0664-.1445-.18828-.4594-.42578-.9844-.26317-.5817-.60898-.7383-.7772-.8145z" fill="#cf64b1"/><path d="m30.5273 7.91016-3.0017-6.7334s.6576.23471 1.0411 1.08811c.3836.8534 2.3257 5.1562 2.4396 5.40871.1138.25251.3374.44361.4507.5022s.2513.11782.3672.16406c.1871.48962.4229.71926.5156.77344-.1448-.06562-.4737-.20676-1-.44141-.5817-.25936-.7329-.58849-.81-.75644z" fill="#cf64b1"/><g filter="url(#b)"><path d="m25 49c.7999 0 1.5907-.0391 2.3705-.1156.5074-.1806.9308-.5624 1.1574-1.0721l2.4443-5.4999c.1104-.2483.3176-.4397.5707-.5385.2326-.0908.4628-.1862.6905-.2863.249-.1094.5311-.1207.785-.023l5.6178 2.1607c.5192.1997 1.0868.171 1.5724-.0583 1.2269-1.0062 2.3523-2.1316 3.3585-3.3585.2293-.4856.258-1.0532.0583-1.5724l-2.1608-5.6179c-.0976-.2538-.0863-.5359.0231-.785.1-.2276.1955-.4578.2862-.6903.0988-.2531.2902-.4603.5385-.5707l5.4999-2.4443c.5097-.2266.8915-.65 1.0721-1.1574.0765-.7798.1156-1.5706.1156-2.3705s-.0391-1.5907-.1156-2.3705c-.1806-.5074-.5624-.9308-1.0721-1.1574l-5.4999-2.4443c-.2483-.1104-.4397-.3176-.5385-.5707-.0907-.2325-.1862-.4627-.2862-.6903-.1094-.2491-.1207-.5312-.0231-.785l2.1608-5.6179c.1997-.5192.171-1.0868-.0583-1.57236-1.0062-1.22693-2.1316-2.35234-3.3585-3.35853-.4856-.22931-1.0532-.25799-1.5724-.05831l-5.6178 2.16071c-.2539.09764-.536.08637-.785-.02303-.2277-.10005-.4579-.19551-.6905-.28629-.2531-.09881-.4603-.29022-.5707-.53853l-2.4443-5.49984c-.2266-.50972-.65-.89155-1.1574-1.07213-.7798-.07646-1.5706-.11559-2.3705-.11559v17c4.4183 0 7 2.5817 7 7s-2.5817 7-7 7z" fill="url(#e)"/></g><circle cx="25" cy="25" fill="#fff" r="8" stroke="url(#f)"/><circle cx="25" cy="25" fill="#fff" r="8"/><path clip-rule="evenodd" d="m23.5424 21.6108c.3331-.1714.734-.1423 1.0388.0755l3.5 2.5c.2628.1877.4188.4908.4188.8137 0 .323-.156.626-.4188.8137l-3.5 2.5c-.3048.2178-.7057.2469-1.0388.0755s-.5424-.5146-.5424-.8892v-5c0-.3746.2093-.7178.5424-.8892z" fill="#161b22" fill-rule="evenodd"/></svg>