<svg fill="none" height="50" viewBox="0 0 50 50" width="50" xmlns="http://www.w3.org/2000/svg" xmlns:xlink="http://www.w3.org/1999/xlink"><filter id="a" color-interpolation-filters="sRGB" filterUnits="userSpaceOnUse" height="39" width="40" x="6" y="2"><feFlood flood-opacity="0" result="BackgroundImageFix"/><feBlend in="SourceGraphic" in2="BackgroundImageFix" mode="normal" result="shape"/><feColorMatrix in="SourceAlpha" result="hardAlpha" type="matrix" values="0 0 0 0 0 0 0 0 0 0 0 0 0 0 0 0 0 0 127 0"/><feOffset dx="-1" dy="-1"/><feComposite in2="hardAlpha" k2="-1" k3="1" operator="arithmetic"/><feColorMatrix type="matrix" values="0 0 0 0 0 0 0 0 0 0 0 0 0 0 0 0 0 0 0.1 0"/><feBlend in2="shape" mode="normal" result="effect1_innerShadow"/></filter><filter id="b" color-interpolation-filters="sRGB" filterUnits="userSpaceOnUse" height="8" width="40" x="6" y="2"><feFlood flood-opacity="0" result="BackgroundImageFix"/><feBlend in="SourceGraphic" in2="BackgroundImageFix" mode="normal" result="shape"/><feColorMatrix in="SourceAlpha" result="hardAlpha" type="matrix" values="0 0 0 0 0 0 0 0 0 0 0 0 0 0 0 0 0 0 127 0"/><feOffset dx="1" dy="1"/><feComposite in2="hardAlpha" k2="-1" k3="1" operator="arithmetic"/><feColorMatrix type="matrix" values="0 0 0 0 1 0 0 0 0 1 0 0 0 0 1 0 0 0 0.25 0"/><feBlend in2="shape" mode="normal" result="effect1_innerShadow"/></filter><filter id="c" color-interpolation-filters="sRGB" filterUnits="userSpaceOnUse" height="8" width="40" x="6" y="2"><feFlood flood-opacity="0" result="BackgroundImageFix"/><feBlend in="SourceGraphic" in2="BackgroundImageFix" mode="normal" result="shape"/><feColorMatrix in="SourceAlpha" result="hardAlpha" type="matrix" values="0 0 0 0 0 0 0 0 0 0 0 0 0 0 0 0 0 0 127 0"/><feOffset dx="1" dy="1"/><feComposite in2="hardAlpha" k2="-1" k3="1" operator="arithmetic"/><feColorMatrix type="matrix" values="0 0 0 0 1 0 0 0 0 1 0 0 0 0 1 0 0 0 0.25 0"/><feBlend in2="shape" mode="normal" result="effect1_innerShadow"/></filter><filter id="d" color-interpolation-filters="sRGB" filterUnits="userSpaceOnUse" height="40" width="22" x="2" y="6"><feFlood flood-opacity="0" result="BackgroundImageFix"/><feBlend in="SourceGraphic" in2="BackgroundImageFix" mode="normal" result="shape"/><feColorMatrix in="SourceAlpha" result="hardAlpha" type="matrix" values="0 0 0 0 0 0 0 0 0 0 0 0 0 0 0 0 0 0 127 0"/><feOffset dx="1" dy="1"/><feComposite in2="hardAlpha" k2="-1" k3="1" operator="arithmetic"/><feColorMatrix type="matrix" values="0 0 0 0 1 0 0 0 0 1 0 0 0 0 1 0 0 0 0.3 0"/><feBlend in2="shape" mode="normal" result="effect1_innerShadow"/></filter><linearGradient id="e" gradientUnits="userSpaceOnUse" x1="21.3125" x2="41" y1="1.5625" y2="41"><stop offset="0" stop-color="#06b99f"/><stop offset="1" stop-color="#9de3d8"/></linearGradient><linearGradient id="f" gradientUnits="userSpaceOnUse" x1="6" x2="58.5" y1="13.25" y2="48.5"><stop offset="0" stop-color="#fce390"/><stop offset=".578999" stop-color="#51bc8c"/><stop offset="1" stop-color="#19ab7a"/></linearGradient><linearGradient id="g" gradientUnits="userSpaceOnUse" x1="31.5" x2="12.375" y1="13.25" y2="-1.1875"><stop offset="0" stop-color="#49ccb8"/><stop offset="1" stop-color="#0eb0aa"/></linearGradient><linearGradient id="h" gradientUnits="userSpaceOnUse" x1="32.625" x2="10" y1="17.625" y2="7.25"><stop offset="0" stop-color="#358465"/><stop offset="1" stop-color="#1c9939"/></linearGradient><linearGradient id="i" gradientUnits="userSpaceOnUse" x1="-22.5" x2="13" y1="-8.75" y2="46"><stop offset="0" stop-color="#01a49e" stop-opacity="0"/><stop offset="1" stop-color="#499dfe"/></linearGradient><linearGradient id="j" gradientUnits="userSpaceOnUse" x1="3" x2="23" y1="6" y2="51.5"><stop offset="0" stop-color="#99e4fa"/><stop offset="1" stop-color="#2781e3"/></linearGradient><linearGradient id="k" gradientUnits="userSpaceOnUse" x1="-22.5" x2="13" y1="-8.75" y2="46"><stop offset="0" stop-color="#25e1da"/><stop offset="1" stop-color="#499dfe"/></linearGradient><linearGradient id="l" gradientUnits="userSpaceOnUse" x1="22.25" x2="22.25" y1="46" y2="6"><stop offset="0" stop-color="#2d8bf2"/><stop offset="1" stop-color="#159fc0"/></linearGradient><linearGradient id="m" gradientUnits="userSpaceOnUse" x1="36" x2="44.5" y1="33" y2="47"><stop offset="0" stop-color="#46a16a"/><stop offset="1" stop-color="#179634"/></linearGradient><linearGradient id="n" gradientUnits="userSpaceOnUse" x1="42.9495" x2="39.7217" y1="39.0545" y2="33.4892"><stop offset="0" stop-color="#368466" stop-opacity="0"/><stop offset="1" stop-color="#28c84d"/></linearGradient><path d="m45.7686 38.3441-.4807.1377.4287 1.4962.5229-1.4659zm-11.6856 2.6559v.5h.5908l-.0977-.5827zm-11.083 0h-.5v.5h.5zm-17-34h-.5v.5h.5zm4-5.5c-2.48528 0-4.5 2.01472-4.5 4.5h1c0-1.933 1.567-3.5 3.5-3.5zm32 0h-32v1h32zm4.5 4.5c0-2.48528-2.0147-4.5-4.5-4.5v1c1.933 0 3.5 1.567 3.5 3.5zm0 31v-31h-1v31zm-.2605 1.5121c.1688-.4733.2605-.9825.2605-1.5121h-1c0 .4135-.0715.8092-.2024 1.1761zm-6.2395-4.0121c2.5103 0 4.629 1.6822 5.2879 3.9818l.9613-.2754c-.7785-2.7171-3.2809-4.7064-6.2492-4.7064zm-5.5 5.5c0-3.0376 2.4624-5.5 5.5-5.5v-1c-3.5899 0-6.5 2.9101-6.5 6.5zm.0761.9173c-.05-.298-.0761-.6044-.0761-.9173h-1c0 .3685.0307.7303.0898 1.0827zm-11.5761.5827h11.083v-1h-11.083zm-.5-30.5v30h1v-30zm-3.5-3.5c1.933 0 3.5 1.567 3.5 3.5h1c0-2.48528-2.0147-4.5-4.5-4.5zm-13 0h13v-1h-13zm-.5-1.5v1h1v-1z" fill="url(#e)"/><g filter="url(#a)"><path clip-rule="evenodd" d="m6 6c0-2.20914 1.79086-4 4-4h32c2.2091 0 4 1.79086 4 4v31c0 .4715-.0816.924-.2314 1.3441-.7187-2.5084-3.0293-4.3441-5.7686-4.3441-3.3137 0-6 2.6863-6 6 0 .3407.0284.6748.083 1h-11.083v-30c0-2.20914-1.7909-4-4-4h-13z" fill="url(#f)" fill-rule="evenodd"/></g><g filter="url(#b)"><path clip-rule="evenodd" d="m10 2c-2.20914 0-4 1.79086-4 4h13c2.2091 0 4 1.79086 4 4h23v-4c0-2.20914-1.7909-4-4-4z" fill="url(#g)" fill-rule="evenodd"/></g><g filter="url(#c)"><path clip-rule="evenodd" d="m10 2c-2.20914 0-4 1.79086-4 4v4h40v-4c0-2.20914-1.7909-4-4-4z" fill="url(#h)" fill-rule="evenodd"/></g><path d="m2 10c0-2.20914 1.79086-4 4-4h14c2.2091 0 4 1.79086 4 4v32c0 2.2091-1.7909 4-4 4h-14c-2.20914 0-4-1.7909-4-4z" fill="url(#i)" stroke="url(#j)"/><g filter="url(#d)"><path d="m2 10c0-2.20914 1.79086-4 4-4h14c2.2091 0 4 1.79086 4 4v32c0 2.2091-1.7909 4-4 4h-14c-2.20914 0-4-1.7909-4-4z" fill="url(#k)"/></g><path d="m11 8c-.5523 0-1 .44772-1 1s.4477 1 1 1zm4 2c.5523 0 1-.44772 1-1s-.4477-1-1-1zm-4 0h4v-2h-4z" fill="#b4dfed"/><rect fill="#fff" height="4" rx="1" width="4" x="5" y="13"/><rect fill="#ffea7f" height="4" rx="1" width="4" x="5" y="19"/><rect fill="#6f42c1" height="4" rx="1" width="4" x="5" y="25"/><rect fill="#ffea7f" height="4" rx="1" width="4" x="11" y="13"/><rect fill="#fb8532" height="4" rx="1" width="4" x="11" y="19"/><rect fill="#fff" height="4" rx="1" width="4" x="17" y="13"/><path d="m20 46h-13.5c-.27614 0-.5-.2239-.5-.5s.22386-.5.5-.5h12.5c2.2091 0 4-1.7909 4-4v-31c0-1.24949-.6245-2.41631-1.6641-3.1094l-1.3359-.8906c2.2091 0 4 1.79086 4 4v32c0 2.2091-1.7909 4-4 4z" fill="url(#l)"/><circle cx="40" cy="40" fill="#fff" r="8" stroke="url(#m)"/><path clip-rule="evenodd" d="m40 48c4.4183 0 8-3.5817 8-8s-3.5817-8-8-8-8 3.5817-8 8 3.5817 8 8 8zm-1-8c0-.5523.4477-1 1-1s1 .4477 1 1-.4477 1-1 1-1-.4477-1-1zm1-3c-1.3062 0-2.4175.8348-2.8293 2h-1.1707c-.5523 0-1 .4477-1 1s.4477 1 1 1h1.1707c.4118 1.1652 1.5231 2 2.8293 2s2.4175-.8348 2.8293-2h1.1707c.5523 0 1-.4477 1-1s-.4477-1-1-1h-1.1707c-.4118-1.1652-1.5231-2-2.8293-2z" fill="#28a745" fill-rule="evenodd"/><path d="m47.4181 36.968c-1.6747-4.0969-6.3536-6.0604-10.4505-4.3856-4.097 1.6747-6.0605 6.3536-4.3857 10.4505 1.6748 4.097 6.3536 6.0605 10.4505 4.3857.0505-.0206.1006-.0417.1503-.0632-3.603 1.3749-7.6635-.3722-9.1306-3.9611-1.4887-3.6417.2567-7.8007 3.8984-9.2894s7.8007.2567 9.2894 3.8984c.788 1.9276.6699 4.0001-.1559 5.7448 1.0703-2.0257 1.2688-4.4935.3341-6.7801z" fill="url(#n)" fill-opacity=".5"/></svg>