<svg fill="none" height="50" viewBox="0 0 50 50" width="50" xmlns="http://www.w3.org/2000/svg" xmlns:xlink="http://www.w3.org/1999/xlink"><filter id="a" color-interpolation-filters="sRGB" filterUnits="userSpaceOnUse" height="31.9499" width="30" x="19" y="3"><feFlood flood-opacity="0" result="BackgroundImageFix"/><feBlend in="SourceGraphic" in2="BackgroundImageFix" mode="normal" result="shape"/><feColorMatrix in="SourceAlpha" result="hardAlpha" type="matrix" values="0 0 0 0 0 0 0 0 0 0 0 0 0 0 0 0 0 0 127 0"/><feOffset dx="1" dy="1"/><feComposite in2="hardAlpha" k2="-1" k3="1" operator="arithmetic"/><feColorMatrix type="matrix" values="0 0 0 0 1 0 0 0 0 1 0 0 0 0 1 0 0 0 0.25 0"/><feBlend in2="shape" mode="normal" result="effect1_innerShadow"/><feColorMatrix in="SourceAlpha" result="hardAlpha" type="matrix" values="0 0 0 0 0 0 0 0 0 0 0 0 0 0 0 0 0 0 127 0"/><feOffset dx="-1" dy="-1"/><feComposite in2="hardAlpha" k2="-1" k3="1" operator="arithmetic"/><feColorMatrix type="matrix" values="0 0 0 0 0.132188 0 0 0 0 0.5875 0 0 0 0 0.554798 0 0 0 0.08 0"/><feBlend in2="effect1_innerShadow" mode="normal" result="effect2_innerShadow"/></filter><filter id="b" color-interpolation-filters="sRGB" filterUnits="userSpaceOnUse" height="31.9499" width="30" x="1" y="15"><feFlood flood-opacity="0" result="BackgroundImageFix"/><feBlend in="SourceGraphic" in2="BackgroundImageFix" mode="normal" result="shape"/><feColorMatrix in="SourceAlpha" result="hardAlpha" type="matrix" values="0 0 0 0 0 0 0 0 0 0 0 0 0 0 0 0 0 0 127 0"/><feOffset dx="1" dy="1"/><feComposite in2="hardAlpha" k2="-1" k3="1" operator="arithmetic"/><feColorMatrix type="matrix" values="0 0 0 0 1 0 0 0 0 1 0 0 0 0 1 0 0 0 0.25 0"/><feBlend in2="shape" mode="normal" result="effect1_innerShadow"/></filter><linearGradient id="c" gradientUnits="userSpaceOnUse" x1="21.5" x2="44" y1="3" y2="33.5"><stop offset="0" stop-color="#77d4e4"/><stop offset="1" stop-color="#fff"/></linearGradient><linearGradient id="d" gradientUnits="userSpaceOnUse" x1="56" x2="25" y1="34.9499" y2="8"><stop offset="0" stop-color="#c8b4f4"/><stop offset="1" stop-color="#52e4db"/></linearGradient><linearGradient id="e" gradientUnits="userSpaceOnUse" x1="4" x2="21.5" y1="15" y2="46"><stop offset="0" stop-color="#7845d5"/><stop offset="1" stop-color="#9f7be4"/></linearGradient><linearGradient id="f" gradientUnits="userSpaceOnUse" x1="-5.5" x2="20" y1="7" y2="42"><stop offset="0" stop-color="#e3d7fe" stop-opacity="0"/><stop offset=".942547" stop-color="#804eda"/></linearGradient><radialGradient id="g" cx="0" cy="0" gradientTransform="matrix(0 11.2344 -11.8359 0 19.1641 35.5586)" gradientUnits="userSpaceOnUse" r="1"><stop offset="0" stop-color="#5415c5"/><stop offset="1" stop-color="#7342ca" stop-opacity="0"/></radialGradient><linearGradient id="h" gradientUnits="userSpaceOnUse" x1="29.8125" x2="27.5" y1="15" y2="29.5"><stop offset="0" stop-color="#5fe0de"/><stop offset="1" stop-color="#8453dc"/></linearGradient><path d="m19 15h-.5v.5h.5zm6.9041 1.0578-.3609.3462.1221.1272.1748.0225zm2.7035 12.9422-.2581-.4283-1.5405.9283h1.7986zm7.3309.713.3025-.3982zm6.6572 5.0571.3025-.3981zm-23.0957-27.7701c0-1.933 1.567-3.5 3.5-3.5v-1c-2.4853 0-4.5 2.01472-4.5 4.5zm0 8v-8h-1v8zm3.8902-.5h-4.3902v1h4.3902zm2.8747 1.2117c-.7043-.7341-1.7007-1.2117-2.8747-1.2117v1c.8896 0 1.6289.3576 2.153.904zm-.4248.842c3.1928.4117 5.6599 3.1413 5.6599 6.4463h1c0-3.8143-2.8469-6.9629-6.532-7.4381zm5.6599 6.4463c0 2.3639-1.2615 4.4335-3.1505 5.5717l.5161.8566c2.1768-1.3116 3.6344-3.6995 3.6344-6.4283zm2.3214 5.5h-5.2138v1h5.2138zm2.4196.8148c-.6959-.5286-1.5457-.8148-2.4196-.8148v1c.6554 0 1.2928.2146 1.8147.6111zm6.6572 5.0572-6.6572-5.0572-.6049.7963 6.6572 5.0572zm.6018-.2987c0 .3101-.3549.4862-.6018.2987l-.605.7963c.9054.6877 2.2068.042 2.2068-1.095zm0-4.1983v4.1983h1v-4.1983zm1.375-1.375c-.7594 0-1.375.6156-1.375 1.375h1c0-.2071.1679-.375.375-.375zm.125 0h-.125v1h.125zm3.5-3.5c0 1.933-1.567 3.5-3.5 3.5v1c2.4853 0 4.5-2.0147 4.5-4.5zm0-18v18h1v-18zm-3.5-3.5c1.933 0 3.5 1.567 3.5 3.5h1c0-2.48528-2.0147-4.5-4.5-4.5zm-22 0h22v-1h-22z" fill="url(#c)"/><g filter="url(#a)"><path clip-rule="evenodd" d="m23 3c-2.2091 0-4 1.79086-4 4v8h4.3902c1.0318 0 1.8996.4176 2.5139 1.0578 3.4389.4435 6.0959 3.3825 6.0959 6.9422 0 2.5463-1.3596 4.7751-3.3924 6h5.2138c.7646 0 1.5082.2504 2.1171.713l6.6572 5.0571c.5761.4377 1.4043.0268 1.4043-.6968v-4.1983c0-.4832.3918-.875.875-.875h.125c2.2091 0 4-1.7909 4-4v-18c0-2.20914-1.7909-4-4-4z" fill="url(#d)" fill-rule="evenodd"/></g><path clip-rule="evenodd" d="m1 19v18c0 2.2091 1.79086 4 4 4h.125c.48325 0 .875.3918.875.875v4.1983c0 .7236.82816 1.1345 1.40429.6968l6.65721-5.0571c.6089-.4626 1.3525-.713 2.1171-.713h10.8214c2.2091 0 4-1.7909 4-4v-10.3924c-1.2249 2.0328-3.4537 3.3924-6 3.3924-3.866 0-7-3.134-7-7s3.134-7 7-7c.3037 0 .6029.0193.8965.0569-.6565-.6735-1.5595-1.0569-2.5063-1.0569h-18.3902c-2.20914 0-4 1.7909-4 4z" fill="#9867f0" fill-rule="evenodd"/><path d="m7.40429 46.7701-.30245-.3981zm6.65721-5.0571-.3025-.3982zm16.9385-15.1054h.5v-1.7986l-.9283 1.5405zm-5.1035-10.5507-.0634.4959 1.4222.1818-1.0008-1.0267zm-24.3965 20.9431v-18h-1v18zm3.5 3.5c-1.933 0-3.5-1.567-3.5-3.5h-1c0 2.4853 2.01472 4.5 4.5 4.5zm.125 0h-.125v1h.125zm1.375 1.375c0-.7594-.61561-1.375-1.375-1.375v1c.20711 0 .375.1679.375.375zm0 4.1983v-4.1983h-1v4.1983zm.60184.2987c-.24691.1875-.60184.0114-.60184-.2987h-1c0 1.137 1.30139 1.7827 2.20675 1.095zm6.65716-5.0572-6.65716 5.0572.60491.7963 6.65715-5.0572zm2.4196-.8148c-.8739 0-1.7237.2862-2.4196.8148l.6049.7963c.5219-.3965 1.1593-.6111 1.8147-.6111zm10.8214 0h-10.8214v1h10.8214zm3.5-3.5c0 1.933-1.567 3.5-3.5 3.5v1c2.4853 0 4.5-2.0147 4.5-4.5zm0-10.3924v10.3924h1v-10.3924zm.0717-.2581c-1.1382 1.889-3.2078 3.1505-5.5717 3.1505v1c2.7288 0 5.1167-1.4576 6.4283-3.6344zm-5.5717 3.1505c-3.5899 0-6.5-2.9101-6.5-6.5h-1c0 4.1421 3.3579 7.5 7.5 7.5zm-6.5-6.5c0-3.5899 2.9101-6.5 6.5-6.5v-1c-4.1421 0-7.5 3.3579-7.5 7.5zm6.5-6.5c.2825 0 .5605.018.8331.0528l.1268-.9919c-.3145-.0402-.6349-.0609-.9599-.0609zm-1.6098-1c.8115 0 1.5855.3286 2.1482.9059l.7161-.698c-.7503-.7698-1.7822-1.2079-2.8643-1.2079zm-18.3902 0h18.3902v-1h-18.3902zm-3.5 3.5c0-1.933 1.567-3.5 3.5-3.5v-1c-2.48528 0-4.5 2.0147-4.5 4.5z" fill="url(#e)"/><g filter="url(#b)"><path clip-rule="evenodd" d="m1 19v18c0 2.2091 1.79086 4 4 4h.125c.48325 0 .875.3918.875.875v4.1983c0 .7236.82816 1.1345 1.40429.6968l6.65721-5.0571c.6089-.4626 1.3525-.713 2.1171-.713h10.8214c2.2091 0 4-1.7909 4-4v-10.3924c-1.2249 2.0328-3.4537 3.3924-6 3.3924-3.866 0-7-3.134-7-7s3.134-7 7-7c.3037 0 .6029.0193.8965.0569-.6565-.6735-1.5595-1.0569-2.5063-1.0569h-18.3902c-2.20914 0-4 1.7909-4 4z" fill="url(#f)" fill-rule="evenodd"/></g><path d="m29.9844 35.9961v-6.7773l1.0156-.9258v8.6875c0 2.2091-1.7909 4-4 4h-10.6289c-.8695 0-1.7153.2833-2.4094.807l-6.63358 5.0055 6.56908-5.7963c.7308-.6448 1.6719-1.0006 2.6465-1.0006h9.4407c2.2091 0 4-1.7909 4-4z" fill="url(#g)"/><circle cx="25" cy="23" fill="#fff" r="8" stroke="url(#h)"/><circle cx="25" cy="23" fill="#fff" r="8"/><path clip-rule="evenodd" d="m23.7071 20.2929c.3905.3905.3905 1.0237 0 1.4142l-1.2929 1.2929 1.2929 1.2929c.3905.3905.3905 1.0237 0 1.4142s-1.0237.3905-1.4142 0l-2-2c-.3905-.3905-.3905-1.0237 0-1.4142l2-2c.3905-.3905 1.0237-.3905 1.4142 0zm2.5858 0c.3905-.3905 1.0237-.3905 1.4142 0l2 2c.3905.3905.3905 1.0237 0 1.4142l-2 2c-.3905.3905-1.0237.3905-1.4142 0s-.3905-1.0237 0-1.4142l1.2929-1.2929-1.2929-1.2929c-.3905-.3905-.3905-1.0237 0-1.4142z" fill="#2f363d" fill-rule="evenodd"/></svg>