<svg fill="none" height="52" viewBox="0 0 52 52" width="52" xmlns="http://www.w3.org/2000/svg" xmlns:xlink="http://www.w3.org/1999/xlink"><filter id="a" color-interpolation-filters="sRGB" filterUnits="userSpaceOnUse" height="47.9977" width="46.9728" x="1.91602" y="1.00244"><feFlood flood-opacity="0" result="BackgroundImageFix"/><feBlend in="SourceGraphic" in2="BackgroundImageFix" mode="normal" result="shape"/><feColorMatrix in="SourceAlpha" result="hardAlpha" type="matrix" values="0 0 0 0 0 0 0 0 0 0 0 0 0 0 0 0 0 0 127 0"/><feOffset dx="1" dy="1"/><feComposite in2="hardAlpha" k2="-1" k3="1" operator="arithmetic"/><feColorMatrix type="matrix" values="0 0 0 0 1 0 0 0 0 1 0 0 0 0 1 0 0 0 0.16 0"/><feBlend in2="shape" mode="normal" result="effect1_innerShadow"/><feColorMatrix in="SourceAlpha" result="hardAlpha" type="matrix" values="0 0 0 0 0 0 0 0 0 0 0 0 0 0 0 0 0 0 127 0"/><feOffset dx="-1" dy="-1"/><feComposite in2="hardAlpha" k2="-1" k3="1" operator="arithmetic"/><feColorMatrix type="matrix" values="0 0 0 0 0 0 0 0 0 0 0 0 0 0 0 0 0 0 0.13 0"/><feBlend in2="effect1_innerShadow" mode="normal" result="effect2_innerShadow"/></filter><linearGradient id="b" gradientUnits="userSpaceOnUse" x1="39.5" x2="-1.5" y1="49" y2="-6.5"><stop offset="0" stop-color="#3995ff"/><stop offset="1" stop-color="#c8e1ff"/></linearGradient><linearGradient id="c" gradientUnits="userSpaceOnUse" x1="11.47" x2="34.375" y1="15.0213" y2="41"><stop offset="0" stop-color="#97c6fd"/><stop offset="1" stop-color="#0d5b25"/></linearGradient><linearGradient id="d" gradientUnits="userSpaceOnUse" x1="-16" x2="29.5" y1="-15.4995" y2="35.5005"><stop offset="0" stop-color="#faff06" stop-opacity=".8"/><stop offset="1" stop-color="#0d6622"/></linearGradient><linearGradient id="e" gradientUnits="userSpaceOnUse" x1="37" x2="45.5" y1="34" y2="48"><stop offset="0" stop-color="#e0349b"/><stop offset="1" stop-color="#ef62b7"/></linearGradient><linearGradient id="f" gradientUnits="userSpaceOnUse" x1="43.9495" x2="40.7217" y1="40.0545" y2="34.4892"><stop offset="0" stop-color="#ea4aaa"/><stop offset="1" stop-color="#f37ac3"/></linearGradient><path clip-rule="evenodd" d="m35.8429 46.36c-3.2841 1.6875-7.0079 2.64-10.9542 2.64-13.2549 0-24.000028-10.7452-24.000028-24s10.745128-24 24.000028-24c13.2548 0 24 10.7452 24 24 0 3.9463-.9525 7.6701-2.6401 10.9542-1.3424-1.4255-3.2472-2.3155-5.3599-2.3155-4.0656 0-7.3614 3.2958-7.3614 7.3613 0 2.1127.89 4.0175 2.3156 5.36z" fill="url(#b)" fill-rule="evenodd"/><path d="m35.8429 46.36.2285.4447.6295-.3235-.5152-.4852zm10.4057-10.4058-.364.3428.4853.5152.3235-.6295zm-21.3599 13.5458c4.0276 0 7.8296-.9723 11.1827-2.6953l-.4571-.8894c-3.215 1.652-6.8606 2.5847-10.7256 2.5847zm-24.500028-24.5c0 13.531 10.969028 24.5 24.500028 24.5v-1c-12.9787 0-23.50003-10.5213-23.50003-23.5zm24.500028-24.5c-13.531 0-24.500028 10.969-24.500028 24.5h.999998c0-12.9787 10.52133-23.5 23.50003-23.5zm24.5 24.5c0-13.531-10.9691-24.5-24.5-24.5v1c12.9787 0 23.5 10.5213 23.5 23.5zm-2.6953 11.1827c1.723-3.3531 2.6953-7.1551 2.6953-11.1827h-1c0 3.865-.9327 7.5107-2.5848 10.7257zm-5.8047-2.044c1.9692 0 3.744.8289 4.9959 2.1583l.728-.6856c-1.433-1.5217-3.4678-2.4727-5.7239-2.4727zm-6.8614 6.8613c0-3.7894 3.072-6.8613 6.8614-6.8613v-1c-4.3417 0-7.8614 3.5196-7.8614 7.8613zm2.1584 4.996c-1.3294-1.252-2.1584-3.0268-2.1584-4.996h-1c0 2.2561.9511 4.291 2.4728 5.724z" fill="url(#c)"/><g filter="url(#a)" opacity=".7"><path clip-rule="evenodd" d="m1.93697 18.0743-.02095-.0423c2.95488-9.75461 11.95248-16.88306 22.63708-17.02956l-3.4902 2.99129c-.7555.64758-1.2426 1.55356-1.366 2.541l-.7773 6.21827c-.017.136-.0263.2728-.0357.4095l-.0059.0862c-.0379.5358-.2097 1.7514-.9893 1.7514-.5 0-.75-.5-1-1s-.5-1-1-1c-.4749 0-1.1753.2255-1.7799.4624-.8062.3158-1.4293.9563-1.8164 1.7308l-.4031.8068c-.8943 2.2357.9511 4.6066 3.3379 4.2883l2.6215-.3495c3.0901-.412 5.5525 2.769 4.8168 5.7983-.5672 2.3359-.9697 4.9482-.7768 7.2629.1834 2.2016.3669 4.807.5257 7.2236.2135 3.2501-3.4144 5.3439-5.6194 2.9466-.37-.4024-.6826-.7974-.9063-1.1702-.4004-.6672-.7295-1.3345-1.0539-1.9923-.8911-1.8066-1.7468-3.5415-3.9461-5.0077-.6413-.4275-1.28265-.7636-1.89465-1.0279-2.15114-.929-4.10537-2.8716-4.10537-5.2147 0-1.1252.44699-2.2043 1.24264-3l1.21518-1.2152c.89674-.8967 1.03596-2.3017.33265-3.357-.49345-.7404-1.32432-1.1852-2.21409-1.1852h-.42736c-1.31571 0-2.51751-.7464-3.10073-1.9258zm27.93473-16.24083c.0706-.0947.1412-.18452.2115-.2697 3.0179.66588 5.8225 1.8998 8.296 3.58389-.6248.28756-1.3789.69976-2.1328 1.26915-.495.3738-1.1919.8831-1.9444 1.42659-2.0406 1.47381-4.9069.27425-5.3181-2.20909-.0071-.04311-.0151-.08597-.0231-.12884-.0086-.04603-.0172-.09207-.0247-.1384-.0736-.45309-.2119-1.99334.9356-3.5336zm10.8079 5.87481c.2221-.08026.4478-.13633.6745-.16948 4.6391 4.3761 7.5347 10.5806 7.5347 17.4613 0 3.6746-.8258 7.1563-2.302 10.2697-.9774.4052-2.1733.2545-3.0256-.5978-.4355-.4354-.7134-1.0036-.7898-1.6147l-.8468-6.7744c-.0235-.188-.0655-.3733-.1254-.5531-.5026-1.5076-2.1804-2.4541-3.7681-2.5234-.6079-.0265-1.3197-.0888-2.1418-.2063-2.882-.4117-3.73-2.8584-3.9395-3.7089-.0477-.1933-.0895-.3841-.1214-.5806-.1836-1.134-.3709-5.4222 6.0609-9.71046.7278-.48528 1.8153-.93939 2.7903-1.29186zm-5.5966 32.29182h-.746c-.9358 0-1.842.3282-2.5609.9273l-4.3999 3.667c-.3226.2688-.6855.4852-1.0754.6411l-3.7202 1.4881c-.4384.1754-.7774.5349-.9268.9829-.1248.3745-.1045.7511.0224 1.0805 1.0509.1406 2.1233.2131 3.2126.2131 4.4895 0 8.691-1.2326 12.2846-3.378-1.3277-1.1006-2.1734-2.7623-2.1734-4.6216 0-.3408.0284-.675.083-1.0004z" fill="url(#d)" fill-rule="evenodd"/></g><circle cx="41" cy="41" fill="#fff" r="8" stroke="url(#e)"/><g clip-rule="evenodd" fill-rule="evenodd"><path d="m40.8887 49c4.4182 0 8-3.5817 8-8s-3.5818-8-8-8c-4.4183 0-8 3.5817-8 8s3.5817 8 8 8zm.5001-4.2993c7.0931-4.4151 1.5459-8.6711-.5001-5.7253-2.0459-2.9458-7.5933 1.3102-.5002 5.7253.3027.1884.6977.1884 1.0003 0z" fill="#ea4aaa"/><path d="m48.4181 37.9682c-1.6748-4.097-6.3537-6.0605-10.4506-4.3857s-6.0605 6.3536-4.3857 10.4505c1.6748 4.097 6.3537 6.0605 10.4506 4.3857.0504-.0206.1005-.0417.1503-.0632-3.603 1.3749-7.6635-.3722-9.1306-3.9611-1.4887-3.6417.2566-7.8007 3.8983-9.2894s7.8008.2567 9.2894 3.8984c.788 1.9276.6699 4.0001-.1559 5.7448 1.0703-2.0257 1.2689-4.4935.3342-6.78z" fill="url(#f)" fill-opacity=".5"/></g></svg>