<svg fill="none" height="51" viewBox="0 0 51 51" width="51" xmlns="http://www.w3.org/2000/svg" xmlns:xlink="http://www.w3.org/1999/xlink"><filter id="a" color-interpolation-filters="sRGB" filterUnits="userSpaceOnUse" height="34" width="20" x="2" y="2"><feFlood flood-opacity="0" result="BackgroundImageFix"/><feBlend in="SourceGraphic" in2="BackgroundImageFix" mode="normal" result="shape"/><feColorMatrix in="SourceAlpha" result="hardAlpha" type="matrix" values="0 0 0 0 0 0 0 0 0 0 0 0 0 0 0 0 0 0 127 0"/><feOffset dx="1" dy="1"/><feComposite in2="hardAlpha" k2="-1" k3="1" operator="arithmetic"/><feColorMatrix type="matrix" values="0 0 0 0 1 0 0 0 0 1 0 0 0 0 1 0 0 0 0.25 0"/><feBlend in2="shape" mode="normal" result="effect1_innerShadow"/><feColorMatrix in="SourceAlpha" result="hardAlpha" type="matrix" values="0 0 0 0 0 0 0 0 0 0 0 0 0 0 0 0 0 0 127 0"/><feOffset dx="-1" dy="-1"/><feComposite in2="hardAlpha" k2="-1" k3="1" operator="arithmetic"/><feColorMatrix type="matrix" values="0 0 0 0 0 0 0 0 0 0 0 0 0 0 0 0 0 0 0.08 0"/><feBlend in2="effect1_innerShadow" mode="normal" result="effect2_innerShadow"/></filter><filter id="b" color-interpolation-filters="sRGB" filterUnits="userSpaceOnUse" height="8" width="20" x="2" y="2"><feFlood flood-opacity="0" result="BackgroundImageFix"/><feBlend in="SourceGraphic" in2="BackgroundImageFix" mode="normal" result="shape"/><feColorMatrix in="SourceAlpha" result="hardAlpha" type="matrix" values="0 0 0 0 0 0 0 0 0 0 0 0 0 0 0 0 0 0 127 0"/><feOffset dx="1" dy="1"/><feComposite in2="hardAlpha" k2="-1" k3="1" operator="arithmetic"/><feColorMatrix type="matrix" values="0 0 0 0 1 0 0 0 0 1 0 0 0 0 1 0 0 0 0.25 0"/><feBlend in2="shape" mode="normal" result="effect1_innerShadow"/></filter><filter id="c" color-interpolation-filters="sRGB" filterUnits="userSpaceOnUse" height="44" width="20" x="26" y="2"><feFlood flood-opacity="0" result="BackgroundImageFix"/><feBlend in="SourceGraphic" in2="BackgroundImageFix" mode="normal" result="shape"/><feColorMatrix in="SourceAlpha" result="hardAlpha" type="matrix" values="0 0 0 0 0 0 0 0 0 0 0 0 0 0 0 0 0 0 127 0"/><feOffset dx="1" dy="1"/><feComposite in2="hardAlpha" k2="-1" k3="1" operator="arithmetic"/><feColorMatrix type="matrix" values="0 0 0 0 1 0 0 0 0 1 0 0 0 0 1 0 0 0 0.25 0"/><feBlend in2="shape" mode="normal" result="effect1_innerShadow"/><feColorMatrix in="SourceAlpha" result="hardAlpha" type="matrix" values="0 0 0 0 0 0 0 0 0 0 0 0 0 0 0 0 0 0 127 0"/><feOffset dx="-1" dy="-1"/><feComposite in2="hardAlpha" k2="-1" k3="1" operator="arithmetic"/><feColorMatrix type="matrix" values="0 0 0 0 0 0 0 0 0 0 0 0 0 0 0 0 0 0 0.08 0"/><feBlend in2="effect1_innerShadow" mode="normal" result="effect2_innerShadow"/></filter><filter id="d" color-interpolation-filters="sRGB" filterUnits="userSpaceOnUse" height="8" width="20" x="26" y="2"><feFlood flood-opacity="0" result="BackgroundImageFix"/><feBlend in="SourceGraphic" in2="BackgroundImageFix" mode="normal" result="shape"/><feColorMatrix in="SourceAlpha" result="hardAlpha" type="matrix" values="0 0 0 0 0 0 0 0 0 0 0 0 0 0 0 0 0 0 127 0"/><feOffset dx="1" dy="1"/><feComposite in2="hardAlpha" k2="-1" k3="1" operator="arithmetic"/><feColorMatrix type="matrix" values="0 0 0 0 1 0 0 0 0 1 0 0 0 0 1 0 0 0 0.25 0"/><feBlend in2="shape" mode="normal" result="effect1_innerShadow"/></filter><filter id="e" color-interpolation-filters="sRGB" filterUnits="userSpaceOnUse" height="12" width="28" x="8" y="14"><feFlood flood-opacity="0" result="BackgroundImageFix"/><feBlend in="SourceGraphic" in2="BackgroundImageFix" mode="normal" result="shape"/><feColorMatrix in="SourceAlpha" result="hardAlpha" type="matrix" values="0 0 0 0 0 0 0 0 0 0 0 0 0 0 0 0 0 0 127 0"/><feOffset dx="1" dy="1"/><feComposite in2="hardAlpha" k2="-1" k3="1" operator="arithmetic"/><feColorMatrix type="matrix" values="0 0 0 0 1 0 0 0 0 1 0 0 0 0 1 0 0 0 0.25 0"/><feBlend in2="shape" mode="normal" result="effect1_innerShadow"/><feColorMatrix in="SourceAlpha" result="hardAlpha" type="matrix" values="0 0 0 0 0 0 0 0 0 0 0 0 0 0 0 0 0 0 127 0"/><feOffset dx="-1" dy="-1"/><feComposite in2="hardAlpha" k2="-1" k3="1" operator="arithmetic"/><feColorMatrix type="matrix" values="0 0 0 0 0.966667 0 0 0 0 0.519764 0 0 0 0 0.205417 0 0 0 1 0"/><feBlend in2="effect1_innerShadow" mode="normal" result="effect2_innerShadow"/></filter><linearGradient id="f" gradientUnits="userSpaceOnUse" x1="22" x2="4.5" y1="36" y2="-1.5"><stop offset="0" stop-color="#87d9e4"/><stop offset=".739583" stop-color="#a2facf"/></linearGradient><linearGradient id="g" gradientUnits="userSpaceOnUse" x1="1.5" x2="18" y1="2" y2="36"><stop offset="0" stop-color="#80cbd0"/><stop offset="1" stop-color="#51bbca"/></linearGradient><linearGradient id="h" gradientUnits="userSpaceOnUse" x1="22" x2="2" y1="36" y2="-.75"><stop offset=".147738" stop-color="#52e4db"/><stop offset=".816773" stop-color="#a2fab5"/></linearGradient><linearGradient id="i"><stop offset="0" stop-color="#fff"/><stop offset="1" stop-color="#0ea1b5"/></linearGradient><linearGradient id="j" gradientUnits="userSpaceOnUse" x1="-14.5" x2="15" xlink:href="#i" y1="-19.5" y2="10"/><linearGradient id="k" gradientUnits="userSpaceOnUse" x1="44.5" x2="26" y1="40" y2="5"><stop offset="0" stop-color="#87d9e4"/><stop offset="1" stop-color="#a2facf"/></linearGradient><linearGradient id="l" gradientUnits="userSpaceOnUse" x1="26.5" x2="42" y1="1.5" y2="46"><stop offset="0" stop-color="#7fcbd0"/><stop offset="1" stop-color="#52bccb"/></linearGradient><linearGradient id="m" gradientUnits="userSpaceOnUse" x1="44.5" x2="22.75" y1="40" y2="4.75"><stop offset=".301585" stop-color="#52e4db"/><stop offset="1" stop-color="#a2fab5"/></linearGradient><linearGradient id="n" gradientUnits="userSpaceOnUse" x1="5" x2="38.5" xlink:href="#i" y1="-17.5" y2="10"/><linearGradient id="o" gradientUnits="userSpaceOnUse" x1="9.5" x2="26" y1="7.5" y2="33"><stop offset="0" stop-color="#ffab70"/><stop offset="1" stop-color="#fb8532"/></linearGradient><linearGradient id="p" gradientUnits="userSpaceOnUse" x1="14" x2="28" y1="13" y2="28.5"><stop offset="0" stop-color="#fca239"/><stop offset="1" stop-color="#ffbb8b"/></linearGradient><linearGradient id="q" gradientUnits="userSpaceOnUse" x1="9.5" x2="26" y1="7.5" y2="33"><stop offset=".147561" stop-color="#ffd33d"/><stop offset="1" stop-color="#faa060"/></linearGradient><linearGradient id="r" gradientUnits="userSpaceOnUse" x1="36" x2="44.5" y1="33" y2="47"><stop offset="0" stop-color="#0ea1b5"/><stop offset="1" stop-color="#20b3d0"/></linearGradient><linearGradient id="s" gradientUnits="userSpaceOnUse" x1="42.9495" x2="39.7217" y1="39.0545" y2="33.4892"><stop offset="0" stop-color="#368466" stop-opacity="0"/><stop offset="1" stop-color="#30c5eb"/></linearGradient><path d="m2 6c0-2.20914 1.79086-4 4-4h12c2.2091 0 4 1.79086 4 4v26c0 2.2091-1.7909 4-4 4h-12c-2.20914 0-4-1.7909-4-4z" fill="url(#f)"/><path d="m6 2.5h12v-1h-12zm15.5 3.5v26h1v-26zm-3.5 29.5h-12v1h12zm-15.5-3.5v-26h-1v26zm3.5 3.5c-1.933 0-3.5-1.567-3.5-3.5h-1c0 2.4853 2.01472 4.5 4.5 4.5zm15.5-3.5c0 1.933-1.567 3.5-3.5 3.5v1c2.4853 0 4.5-2.0147 4.5-4.5zm-3.5-29.5c1.933 0 3.5 1.567 3.5 3.5h1c0-2.48528-2.0147-4.5-4.5-4.5zm-12-1c-2.48528 0-4.5 2.01472-4.5 4.5h1c0-1.933 1.567-3.5 3.5-3.5z" fill="url(#g)"/><g filter="url(#a)"><path d="m2 6c0-2.20914 1.79086-4 4-4h12c2.2091 0 4 1.79086 4 4v26c0 2.2091-1.7909 4-4 4h-12c-2.20914 0-4-1.7909-4-4z" fill="url(#h)"/></g><g filter="url(#b)"><path d="m2 6c0-2.20914 1.79086-4 4-4h12c2.2091 0 4 1.79086 4 4v4h-20z" fill="url(#j)"/></g><path clip-rule="evenodd" d="m30 2c-2.2091 0-4 1.79086-4 4v36c0 2.2091 1.7909 4 4 4h10 2c2.2091 0 4-1.7909 4-4v-2-34c0-2.20914-1.7909-4-4-4zm16 38c0-3.3137-2.6863-6-6-6s-6 2.6863-6 6 2.6863 6 6 6 6-2.6863 6-6z" fill="url(#k)" fill-rule="evenodd"/><path d="m26.5 6c0-1.933 1.567-3.5 3.5-3.5v-1c-2.4853 0-4.5 2.01472-4.5 4.5zm0 36v-36h-1v36zm3.5 3.5c-1.933 0-3.5-1.567-3.5-3.5h-1c0 2.4853 2.0147 4.5 4.5 4.5zm10 0h-10v1h10zm2 0h-2v1h2zm3.5-3.5c0 1.933-1.567 3.5-3.5 3.5v1c2.4853 0 4.5-2.0147 4.5-4.5zm0-2v2h1v-2zm0-34v34h1v-34zm-3.5-3.5c1.933 0 3.5 1.567 3.5 3.5h1c0-2.48528-2.0147-4.5-4.5-4.5zm-12 0h12v-1h-12zm10 32c3.0376 0 5.5 2.4624 5.5 5.5h1c0-3.5899-2.9101-6.5-6.5-6.5zm-5.5 5.5c0-3.0376 2.4624-5.5 5.5-5.5v-1c-3.5899 0-6.5 2.9101-6.5 6.5zm5.5 5.5c-3.0376 0-5.5-2.4624-5.5-5.5h-1c0 3.5899 2.9101 6.5 6.5 6.5zm5.5-5.5c0 3.0376-2.4624 5.5-5.5 5.5v1c3.5899 0 6.5-2.9101 6.5-6.5z" fill="url(#l)"/><g filter="url(#c)"><path clip-rule="evenodd" d="m30 2c-2.2091 0-4 1.79086-4 4v36c0 2.2091 1.7909 4 4 4h10 2c2.2091 0 4-1.7909 4-4v-2-34c0-2.20914-1.7909-4-4-4zm16 38c0-3.3137-2.6863-6-6-6s-6 2.6863-6 6 2.6863 6 6 6 6-2.6863 6-6z" fill="url(#m)" fill-rule="evenodd"/></g><g filter="url(#d)"><path d="m26 6c0-2.20914 1.7909-4 4-4h12c2.2091 0 4 1.79086 4 4v4h-20z" fill="url(#n)"/></g><path d="m8 16c0-1.1046.89543-2 2-2h24c1.1046 0 2 .8954 2 2v8c0 1.1046-.8954 2-2 2h-24c-1.10457 0-2-.8954-2-2z" fill="url(#o)"/><path d="m10 14.5h24v-1h-24zm25.5 1.5v8h1v-8zm-1.5 9.5h-24v1h24zm-25.5-1.5v-8h-1v8zm1.5 1.5c-.82843 0-1.5-.6716-1.5-1.5h-1c0 1.3807 1.11929 2.5 2.5 2.5zm25.5-1.5c0 .8284-.6716 1.5-1.5 1.5v1c1.3807 0 2.5-1.1193 2.5-2.5zm-1.5-9.5c.8284 0 1.5.6716 1.5 1.5h1c0-1.3807-1.1193-2.5-2.5-2.5zm-24-1c-1.38071 0-2.5 1.1193-2.5 2.5h1c0-.8284.67157-1.5 1.5-1.5z" fill="url(#p)"/><g filter="url(#e)"><path d="m8 16c0-1.1046.89543-2 2-2h24c1.1046 0 2 .8954 2 2v8c0 1.1046-.8954 2-2 2h-24c-1.10457 0-2-.8954-2-2z" fill="url(#q)"/></g><path clip-rule="evenodd" d="m12 18c-.5523 0-1 .4477-1 1v2c0 .5523.4477 1 1 1h2c.5523 0 1-.4477 1-1v-2c0-.5523-.4477-1-1-1zm7 1c-.5523 0-1 .4477-1 1s.4477 1 1 1h13c.5523 0 1-.4477 1-1s-.4477-1-1-1z" fill="#fff" fill-rule="evenodd"/><circle cx="40" cy="40" fill="#fff" r="8" stroke="url(#r)"/><g clip-rule="evenodd" fill-rule="evenodd"><path d="m40 48c4.4183 0 8-3.5817 8-8s-3.5817-8-8-8-8 3.5817-8 8 3.5817 8 8 8zm1.2929-5.2929c.3905.3905 1.0237.3905 1.4142 0s.3905-1.0237 0-1.4142l-1.7071-1.7071v-2.5858c0-.5523-.4477-1-1-1s-1 .4477-1 1v3c0 .2652.1054.5196.2929.7071z" fill="#0ea2b5"/><path d="m47.4181 36.9682c-1.6748-4.097-6.3537-6.0605-10.4506-4.3857s-6.0605 6.3536-4.3857 10.4505c1.6748 4.097 6.3537 6.0605 10.4506 4.3857.0504-.0206.1005-.0417.1503-.0632-3.603 1.3749-7.6635-.3722-9.1306-3.9611-1.4887-3.6417.2566-7.8007 3.8983-9.2894s7.8008.2567 9.2894 3.8984c.788 1.9276.6699 4.0001-.1559 5.7448 1.0703-2.0257 1.2689-4.4935.3342-6.78z" fill="url(#s)" fill-opacity=".5"/></g></svg>