<svg fill="none" height="50" viewBox="0 0 50 50" width="50" xmlns="http://www.w3.org/2000/svg" xmlns:xlink="http://www.w3.org/1999/xlink"><filter id="a" color-interpolation-filters="sRGB" filterUnits="userSpaceOnUse" height="47.8412" width="44" x="3" y="1.1582"><feFlood flood-opacity="0" result="BackgroundImageFix"/><feBlend in="SourceGraphic" in2="BackgroundImageFix" mode="normal" result="shape"/><feColorMatrix in="SourceAlpha" result="hardAlpha" type="matrix" values="0 0 0 0 0 0 0 0 0 0 0 0 0 0 0 0 0 0 127 0"/><feOffset dx="1" dy="1"/><feComposite in2="hardAlpha" k2="-1" k3="1" operator="arithmetic"/><feColorMatrix type="matrix" values="0 0 0 0 1 0 0 0 0 1 0 0 0 0 1 0 0 0 0.25 0"/><feBlend in2="shape" mode="normal" result="effect1_innerShadow"/><feColorMatrix in="SourceAlpha" result="hardAlpha" type="matrix" values="0 0 0 0 0 0 0 0 0 0 0 0 0 0 0 0 0 0 127 0"/><feOffset dx="-1" dy="-1"/><feComposite in2="hardAlpha" k2="-1" k3="1" operator="arithmetic"/><feColorMatrix type="matrix" values="0 0 0 0 0 0 0 0 0 0 0 0 0 0 0 0 0 0 0.08 0"/><feBlend in2="effect1_innerShadow" mode="normal" result="effect2_innerShadow"/></filter><filter id="b" color-interpolation-filters="sRGB" filterUnits="userSpaceOnUse" height="56" width="25" x="25" y="-5"><feFlood flood-opacity="0" result="BackgroundImageFix"/><feBlend in="SourceGraphic" in2="BackgroundImageFix" mode="normal" result="shape"/><feColorMatrix in="SourceAlpha" result="hardAlpha" type="matrix" values="0 0 0 0 0 0 0 0 0 0 0 0 0 0 0 0 0 0 127 0"/><feOffset dx="-1" dy="-1"/><feComposite in2="hardAlpha" k2="-1" k3="1" operator="arithmetic"/><feColorMatrix type="matrix" values="0 0 0 0 0 0 0 0 0 0 0 0 0 0 0 0 0 0 0.25 0"/><feBlend in2="shape" mode="normal" result="effect1_innerShadow"/></filter><linearGradient id="c" gradientUnits="userSpaceOnUse" x1="18.6364" x2="28.3467" y1="18.3927" y2="32.056"><stop offset="0" stop-color="#fcc27a"/><stop offset="1" stop-color="#f27831"/></linearGradient><linearGradient id="d" gradientUnits="userSpaceOnUse" x1="-.75" x2="29.5" y1="1.1582" y2="37"><stop offset="0" stop-color="#ffe57f" stop-opacity=".4"/><stop offset=".838542" stop-color="#f06f00"/></linearGradient><linearGradient id="e" gradientUnits="userSpaceOnUse" x1="22" x2="39.5" y1="2.5" y2="35"><stop offset="0" stop-color="#ffd33d" stop-opacity="0"/><stop offset="1" stop-color="#ed4e50"/></linearGradient><linearGradient id="f" gradientUnits="userSpaceOnUse" x1="21" x2="29.5" y1="18" y2="32"><stop offset="0" stop-color="#ef6343"/><stop offset="1" stop-color="#f37d30"/></linearGradient><mask id="g" height="48" maskUnits="userSpaceOnUse" width="44" x="3" y="1"><path d="m23.9051 1.31158-17.99997 5.12253c-1.7192.48926-2.90513 2.05499-2.90513 3.84249v15.7669c0 13.5652 17.8095 22.9565 22 22.9565s22-9.3913 22-22.9565v-15.7669c0-1.7875-1.1859-3.35323-2.9051-3.84249l-18-5.12253c-.7157-.20368-1.4741-.20368-2.1898 0z" fill="#ff9f4c"/></mask><path d="m23.9051 1.31109-17.99997 5.12253c-1.7192.48926-2.90513 2.05499-2.90513 3.84248v15.7669c0 13.5652 17.8095 22.9565 22 22.9565s22-9.3913 22-22.9565v-15.7669c0-1.78749-1.1859-3.35322-2.9051-3.84248l-18-5.12253c-.7157-.20367-1.4741-.20367-2.1898 0z" fill="#fff"/><path d="m31.5 25c0 3.5899-2.9101 6.5-6.5 6.5v1c4.1421 0 7.5-3.3579 7.5-7.5zm-6.5 6.5c-3.5899 0-6.5-2.9101-6.5-6.5h-1c0 4.1421 3.3579 7.5 7.5 7.5zm-6.5-6.5c0-3.5899 2.9101-6.5 6.5-6.5v-1c-4.1421 0-7.5 3.3579-7.5 7.5zm6.5-6.5c3.5899 0 6.5 2.9101 6.5 6.5h1c0-4.1421-3.3579-7.5-7.5-7.5z" fill="url(#c)"/><g filter="url(#a)"><path clip-rule="evenodd" d="m5.90513 6.4335 17.99997-5.12253c.7157-.20368 1.4741-.20368 2.1898 0l18 5.12253c1.7192.48926 2.9051 2.05499 2.9051 3.8425v15.7669c0 13.5652-17.8095 22.9565-22 22.9565s-22-9.3913-22-22.9565v-15.7669c0-1.78751 1.18593-3.35324 2.90513-3.8425zm19.09487 24.5665c3.3137 0 6-2.6863 6-6s-2.6863-6-6-6-6 2.6863-6 6 2.6863 6 6 6z" fill="url(#d)" fill-rule="evenodd"/></g><g mask="url(#g)"><g filter="url(#b)"><path clip-rule="evenodd" d="m50-5h-25v23c3.866 0 7 3.134 7 7s-3.134 7-7 7v19h25z" fill="url(#e)" fill-rule="evenodd"/></g></g><circle cx="25" cy="25" fill="#fff" r="8" stroke="url(#f)"/><circle cx="25" cy="25" fill="#fff" r="8"/><path clip-rule="evenodd" d="m28.707 22.2928c.3906.3904.3907 1.0236.0002 1.4142l-3.9984 4c-.3902.3904-1.023.3907-1.4137.0008l-2.0016-1.998c-.3908-.3901-.3914-1.0233-.0013-1.4142.3902-.3909 1.0234-.3914 1.4143-.0013l1.2943 1.292 3.292-3.2933c.3904-.3906 1.0236-.3907 1.4142-.0002z" fill="#161b22" fill-rule="evenodd"/></svg>