<svg xmlns="http://www.w3.org/2000/svg" xmlns:xlink="http://www.w3.org/1999/xlink" version="1.1" id="Layer_1" x="0px" y="0px" viewBox="0 0 73.7 73.5" style="enable-background:new 0 0 73.7 73.5;" xml:space="preserve" width="80">
<style type="text/css">
	.st0{fill:#9DF3D3;}
	.st1{fill:#64ACFF;}
	.st2{fill-rule:evenodd;clip-rule:evenodd;fill:#64ACFF;}
</style>
<path class="st0" d="M16.7,13.1c0-0.3,0.1-0.6,0.3-0.8c0.2-0.2,0.5-0.3,0.9-0.3H62c0.3,0,0.6,0.1,0.9,0.3c0.2,0.2,0.3,0.5,0.3,0.8  v27c0,0.8,0.7,1.5,1.5,1.5c0.8,0,1.5-0.7,1.5-1.5v-27c0.1-2.2-1.7-4.1-3.9-4.1c-0.1,0-0.2,0-0.3,0H17.8c-2.2-0.1-4.1,1.7-4.1,3.9  c0,0.1,0,0.2,0,0.3V59c-0.1,2.2,1.7,4.1,3.9,4.1c0.1,0,0.2,0,0.3,0h21.4c0.8,0,1.5-0.7,1.5-1.5S40,60,39.2,60H17.8  c-0.5,0.1-1.1-0.3-1.1-0.9c0-0.1,0-0.2,0-0.3C16.7,58.8,16.7,13.1,16.7,13.1z"></path>
<path class="st0" d="M24.2,18c0,0.8-0.7,1.5-1.5,1.5s-1.5-0.7-1.5-1.5s0.7-1.5,1.5-1.5S24.2,17.2,24.2,18z"></path>
<path class="st0" d="M27.2,19.5c0.8,0,1.5-0.7,1.5-1.5s-0.7-1.5-1.5-1.5s-1.5,0.7-1.5,1.5S26.3,19.5,27.2,19.5z"></path>
<path class="st0" d="M33.2,18c0,0.8-0.7,1.5-1.5,1.5s-1.5-0.7-1.5-1.5s0.7-1.5,1.5-1.5S33.2,17.2,33.2,18z"></path>
<path class="st1" d="M3.5,3.4C3.3,3.7,3.1,4.1,3.2,4.5v4.6h6c0.8,0,1.5,0.7,1.5,1.5s-0.7,1.5-1.5,1.5h-6v37.4c0,0.4,0.1,0.8,0.4,1.1  C3.8,50.9,4.2,51,4.7,51h4.5c0.8,0,1.5,0.7,1.5,1.5S10,54,9.2,54H4.7c-1.2,0-2.4-0.4-3.3-1.3c-0.8-0.9-1.3-2-1.2-3.2v-45  c0-1.2,0.4-2.3,1.2-3.2C2.3,0.4,3.4,0,4.7,0h43.5c2.4-0.1,4.4,1.8,4.5,4.2c0,0.1,0,0.2,0,0.3C52.7,5.3,52,6,51.2,6s-1.5-0.7-1.5-1.5  c0-0.4-0.1-0.8-0.4-1.1C49,3.1,48.6,3,48.2,3H4.7C4.2,3,3.8,3.1,3.5,3.4z"></path>
<path class="st2" d="M58.7,43.5c-8.4,0.1-15.1,6.9-15,15.3c0.1,6.8,4.6,12.7,11.1,14.5c0.5,0.1,0.9,0,1.3-0.2  c0.4-0.3,0.6-0.7,0.6-1.2v-3.8l0,0c0-0.4,0.1-0.8,0.3-1.1c0.5-0.7,0.3-1.6-0.4-2.1c-0.2-0.2-0.5-0.2-0.8-0.3  c-0.9-0.1-1.7-0.3-2.5-0.8c-0.9-0.6-1.9-1.7-1.9-4.2c0-1,0.3-2,1-2.7c0.4-0.4,0.5-0.9,0.4-1.4c-0.2-0.5-0.2-1.1-0.2-1.7l0.2,0.1  c0.5,0.2,1,0.5,1.4,0.8c0.4,0.2,0.9,0.3,1.3,0.1c2-0.6,4.2-0.6,6.2,0.1c0.5,0.1,1.1,0,1.5-0.4h0.1c0.1-0.1,0.2-0.2,0.3-0.2  c0.3-0.2,0.6-0.4,1-0.5l0,0c0,0.1,0,0.2,0,0.3c0,0.4-0.1,1-0.2,1.8c-0.1,0.4,0.1,0.9,0.4,1.2c0.6,0.8,0.8,1.7,0.7,2.7  c0.1,1.1-0.3,2.3-1,3.2c-0.9,1-2.2,1.6-3.5,1.8c-0.4,0.1-0.8,0.4-1,0.8s-0.2,0.9,0,1.3c0.2,0.3,0.3,0.7,0.3,1.1c0,0.6,0,2,0,4  c0,0.8,0.7,1.5,1.5,1.5c0.1,0,0.3,0,0.4-0.1c3.7-1,6.9-3.3,8.9-6.6c4.6-7,2.6-16.4-4.4-21C64.5,44.4,61.6,43.5,58.7,43.5z   M49.9,50.4c4.5-4.9,12.1-5.1,17-0.6c2.5,2.3,3.9,5.6,3.8,9c0,2.3-0.7,4.6-1.9,6.5c-1.3,2-3.1,3.6-5.3,4.6c0-0.8,0-1.4,0-1.7  c0-0.3,0-0.7-0.1-1c1.3-0.5,2.5-1.2,3.5-2.3c1.2-1.4,1.9-3.3,1.8-5.2c0.1-1.5-0.3-3-1.1-4.2c0-0.5,0.1-0.9,0.1-1.3  c0-0.5,0-0.9,0-1.4c-0.1-0.5-0.3-1-0.6-1.3c-0.3-0.4-0.7-0.6-1.2-0.8c-0.7-0.2-1.5-0.1-2.1,0.2c-0.6,0.2-1.1,0.5-1.6,0.8l-0.3,0.2  c-2.1-0.5-4.4-0.5-6.5,0c-0.9-0.5-1.9-0.9-2.9-1c-0.7-0.1-1.3,0.1-1.8,0.6c-0.5,0.4-0.8,1-0.8,1.7c-0.1,0.9-0.1,1.7,0.1,2.6  c-0.9,1.2-1.3,2.6-1.3,4.1c-0.2,2.6,1.1,5.2,3.3,6.7c0.6,0.4,1.3,0.7,2,0.9c0,0.3,0,0.5,0,0.8V70c-1.8-0.8-3.5-2.2-4.7-3.8  C45.6,61.2,46,54.7,49.9,50.4L49.9,50.4z"></path>
<path class="st1" d="M30.2,31.6c0,0.4-0.2,0.8-0.4,1.1l-6.1,6c-0.6,0.6-1.5,0.6-2.1,0s-0.6-1.5,0-2.1l5-4.9l-5-5  c-0.5-0.7-0.4-1.6,0.3-2.1c0.5-0.4,1.3-0.4,1.8,0l6.1,6C30,30.7,30.2,31.1,30.2,31.6z"></path>
<path class="st1" d="M33.8,36c-0.8,0-1.5,0.7-1.5,1.5S33,39,33.8,39h9.9c0.8,0,1.5-0.7,1.5-1.5S44.5,36,43.7,36H33.8z"></path>
</svg>